<svg width="1240" height="200" viewBox="0 0 1240 200" fill="none" xmlns="http://www.w3.org/2000/svg">
<path d="M266.08 143.92C272.28 143.92 278.12 143.04 283.6 141.28C289.08 139.48 293.7 137.24 297.46 134.56L289.06 118.06C286.38 120.18 283.1 121.84 279.22 123.04C275.38 124.24 271.38 124.84 267.22 124.84C260.7 124.84 254.84 123.42 249.64 120.58C244.44 117.74 240.34 113.88 237.34 109C234.34 104.12 232.84 98.64 232.84 92.56C232.84 86.48 234.34 81 237.34 76.12C240.34 71.24 244.44 67.38 249.64 64.54C254.84 61.7 260.7 60.28 267.22 60.28C271.38 60.28 275.38 60.88 279.22 62.08C283.1 63.28 286.38 64.94 289.06 67.06L297.46 50.56C293.58 47.76 288.88 45.5 283.36 43.78C277.84 42.06 272.04 41.2 265.96 41.2C258.52 41.2 251.52 42.52 244.96 45.16C238.44 47.8 232.68 51.48 227.68 56.2C222.72 60.88 218.82 66.34 215.98 72.58C213.18 78.78 211.78 85.46 211.78 92.62C211.78 99.74 213.18 106.4 215.98 112.6C218.82 118.8 222.72 124.26 227.68 128.98C232.68 133.66 238.46 137.32 245.02 139.96C251.58 142.6 258.6 143.92 266.08 143.92ZM310.618 142H329.038V107.68C329.038 105.4 329.698 103.28 331.018 101.32C332.378 99.32 334.118 97.7 336.238 96.46C338.398 95.22 340.678 94.6 343.078 94.6C346.558 94.6 349.838 95.6 352.918 97.6L360.598 82.06C358.998 81.06 357.038 80.24 354.718 79.6C352.438 78.96 350.218 78.64 348.058 78.64C344.258 78.64 340.698 79.58 337.378 81.46C334.098 83.3 331.318 85.94 329.038 89.38V80.56H310.618V142ZM368.332 173.2H389.392L436.372 80.56H415.252L398.932 116.56L380.092 80.56H358.972L388.192 134.32L368.332 173.2ZM446.555 173.2H464.975V133.9C467.695 137.1 470.915 139.58 474.635 141.34C478.355 143.06 482.315 143.92 486.515 143.92C492.275 143.92 497.435 142.5 501.995 139.66C506.595 136.78 510.215 132.88 512.855 127.96C515.495 123 516.815 117.44 516.815 111.28C516.815 105.04 515.475 99.46 512.795 94.54C510.155 89.62 506.515 85.74 501.875 82.9C497.275 80.06 492.015 78.64 486.095 78.64C481.855 78.64 477.895 79.48 474.215 81.16C470.535 82.8 467.455 85.1 464.975 88.06V80.56H446.555V173.2ZM481.055 128.26C476.255 128.26 472.295 126.68 469.175 123.52C466.055 120.32 464.495 116.26 464.495 111.34C464.495 106.42 466.055 102.36 469.175 99.16C472.335 95.92 476.295 94.3 481.055 94.3C485.775 94.3 489.675 95.92 492.755 99.16C495.875 102.36 497.435 106.44 497.435 111.4C497.435 116.32 495.895 120.36 492.815 123.52C489.735 126.68 485.815 128.26 481.055 128.26ZM554.22 143.92C556.7 143.92 559.22 143.6 561.78 142.96C564.38 142.32 566.72 141.44 568.8 140.32L564.18 125.56C562.46 126.84 560.62 127.48 558.66 127.48C555.06 127.48 553.26 125.12 553.26 120.4V94.54H566.76V80.56H553.26V57.52H534.84V80.56H526.62V94.54H534.84V121.72C534.84 128.72 536.54 134.18 539.94 138.1C543.38 141.98 548.14 143.92 554.22 143.92ZM615.319 143.92C622.119 143.92 628.239 142.54 633.679 139.78C639.119 136.98 643.419 133.14 646.579 128.26C649.779 123.34 651.379 117.68 651.379 111.28C651.379 104.88 649.779 99.24 646.579 94.36C643.419 89.44 639.119 85.6 633.679 82.84C628.239 80.04 622.119 78.64 615.319 78.64C608.559 78.64 602.439 80.04 596.959 82.84C591.519 85.6 587.199 89.44 583.999 94.36C580.839 99.24 579.259 104.88 579.259 111.28C579.259 117.68 580.839 123.34 583.999 128.26C587.199 133.14 591.519 136.98 596.959 139.78C602.439 142.54 608.559 143.92 615.319 143.92ZM615.319 128.2C612.199 128.2 609.359 127.48 606.799 126.04C604.279 124.6 602.279 122.62 600.799 120.1C599.319 117.54 598.579 114.6 598.579 111.28C598.579 107.96 599.319 105.04 600.799 102.52C602.279 99.96 604.279 97.96 606.799 96.52C609.359 95.08 612.199 94.36 615.319 94.36C618.479 94.36 621.319 95.08 623.839 96.52C626.399 97.96 628.419 99.96 629.899 102.52C631.419 105.04 632.179 107.96 632.179 111.28C632.179 114.6 631.419 117.54 629.899 120.1C628.419 122.62 626.399 124.6 623.839 126.04C621.319 127.48 618.479 128.2 615.319 128.2Z" fill="#EEEEEE"/>
<path d="M670.328 142H689.768V104.02H704.048C710.488 104.02 716.208 102.8 721.208 100.36C726.248 97.88 730.188 94.32 733.028 89.68C735.908 85.04 737.348 79.44 737.348 72.88C737.348 66.28 735.908 60.76 733.028 56.32C730.188 51.88 726.248 48.56 721.208 46.36C716.208 44.12 710.488 43 704.048 43H670.328V142ZM689.768 88.48V58.54H698.048C701.448 58.54 704.588 59.04 707.468 60.04C710.348 61 712.648 62.58 714.368 64.78C716.128 66.94 717.008 69.84 717.008 73.48C717.008 77.08 716.128 79.98 714.368 82.18C712.648 84.38 710.348 85.98 707.468 86.98C704.588 87.98 701.448 88.48 698.048 88.48H689.768ZM749.602 142H768.022V107.68C768.022 105.4 768.682 103.28 770.002 101.32C771.362 99.32 773.102 97.7 775.222 96.46C777.382 95.22 779.662 94.6 782.062 94.6C785.542 94.6 788.822 95.6 791.902 97.6L799.582 82.06C797.982 81.06 796.022 80.24 793.702 79.6C791.422 78.96 789.202 78.64 787.042 78.64C783.242 78.64 779.682 79.58 776.362 81.46C773.082 83.3 770.302 85.94 768.022 89.38V80.56H749.602V142ZM819.017 67.78C822.017 67.78 824.577 66.7 826.697 64.54C828.817 62.38 829.877 59.8 829.877 56.8C829.877 53.8 828.817 51.24 826.697 49.12C824.577 47 822.017 45.94 819.017 45.94C815.977 45.94 813.377 47 811.217 49.12C809.097 51.24 808.037 53.8 808.037 56.8C808.037 59.84 809.097 62.44 811.217 64.6C813.377 66.72 815.977 67.78 819.017 67.78ZM809.777 142H828.197V80.56H809.777V142ZM878.655 143.92C882.695 143.92 886.495 143.34 890.055 142.18C893.615 141.06 896.555 139.64 898.875 137.92L892.575 125.5C889.735 127.7 886.055 128.8 881.535 128.8C877.975 128.8 874.835 128.02 872.115 126.46C869.435 124.9 867.355 122.8 865.875 120.16C864.395 117.48 863.655 114.52 863.655 111.28C863.655 108.32 864.335 105.5 865.695 102.82C867.095 100.14 869.115 97.96 871.755 96.28C874.395 94.6 877.615 93.76 881.415 93.76C885.935 93.76 889.655 94.86 892.575 97.06L898.875 84.64C896.635 82.88 893.675 81.44 889.995 80.32C886.355 79.2 882.555 78.64 878.595 78.64C873.675 78.64 869.135 79.52 864.975 81.28C860.815 83.04 857.195 85.44 854.115 88.48C851.035 91.52 848.635 95 846.915 98.92C845.195 102.84 844.335 106.98 844.335 111.34C844.335 115.9 845.235 120.16 847.035 124.12C848.835 128.04 851.315 131.48 854.475 134.44C857.635 137.4 861.275 139.72 865.395 141.4C869.555 143.08 873.975 143.92 878.655 143.92ZM943.302 143.92C949.782 143.92 955.662 142.52 960.942 139.72C966.222 136.92 970.302 133.04 973.182 128.08L959.922 121.42C957.642 124.14 955.262 126.12 952.782 127.36C950.342 128.6 947.522 129.22 944.322 129.22C939.202 129.22 935.082 127.8 931.962 124.96C928.842 122.12 927.282 118.36 927.282 113.68H974.382C974.502 112.64 974.562 111.94 974.562 111.58C974.602 111.18 974.622 110.72 974.622 110.2C974.622 103.92 973.262 98.42 970.542 93.7C967.862 88.98 964.102 85.3 959.262 82.66C954.462 79.98 948.862 78.64 942.462 78.64C936.062 78.64 930.282 80.1 925.122 83.02C920.002 85.9 915.922 89.8 912.882 94.72C909.842 99.64 908.322 105.16 908.322 111.28C908.322 117.48 909.842 123.04 912.882 127.96C915.962 132.88 920.142 136.78 925.422 139.66C930.702 142.5 936.662 143.92 943.302 143.92ZM927.942 103.48C928.342 99.92 929.822 97.12 932.382 95.08C934.942 93.04 938.222 92.02 942.222 92.02C946.022 92.02 949.182 93.04 951.702 95.08C954.262 97.12 955.862 99.92 956.502 103.48H927.942ZM1008.17 143.92C1016.65 143.92 1023.25 142.12 1027.97 138.52C1032.73 134.88 1035.11 129.72 1035.11 123.04C1035.11 119.4 1034.43 116.5 1033.07 114.34C1031.71 112.14 1029.83 110.36 1027.43 109C1025.07 107.64 1022.35 106.4 1019.27 105.28C1017.39 104.6 1015.41 103.86 1013.33 103.06C1011.29 102.22 1009.55 101.26 1008.11 100.18C1006.71 99.1 1006.01 97.86 1006.01 96.46C1006.01 94.94 1006.69 93.68 1008.05 92.68C1009.41 91.68 1011.23 91.18 1013.51 91.18C1017.55 91.18 1022.17 92.84 1027.37 96.16L1033.67 84.34C1026.07 80.62 1019.31 78.76 1013.39 78.76C1008.51 78.76 1004.19 79.58 1000.43 81.22C996.714 82.86 993.794 85.14 991.674 88.06C989.554 90.94 988.494 94.28 988.494 98.08C988.494 101.24 989.194 103.84 990.594 105.88C992.034 107.88 993.894 109.54 996.174 110.86C998.454 112.18 1000.83 113.36 1003.31 114.4C1007.63 116.2 1010.81 117.62 1012.85 118.66C1014.89 119.66 1015.91 121.34 1015.91 123.7C1015.91 125.82 1015.19 127.46 1013.75 128.62C1012.35 129.74 1010.49 130.3 1008.17 130.3C1002.49 130.3 997.014 127.5 991.734 121.9L983.994 134.26C989.514 140.7 997.574 143.92 1008.17 143.92Z" fill="#06D6A0"/>
<g clip-path="url(#clip0)">
<path d="M145.215 88.5559L145.219 88.5513L145.174 88.5254C144.389 87.97 124.364 76.5121 124.364 76.5121C122.649 75.2411 120.628 74.3347 118.311 73.7549V45.9503C123.788 44.5053 129.266 44.5663 134.908 45.8176C136.52 46.1761 138.13 45.8908 139.743 44.96C144.737 42.0761 148.77 34.5962 148.77 27.9312C148.77 24.527 147.783 22.5372 146.37 21.4462L124.988 9.01488C124.341 8.59527 123.624 8.33587 122.876 8.20769C118.237 6.98699 113.347 6.75353 108.008 7.72552L95.4498 0.418082L95.4483 0.421134C94.2459 -0.234994 92.6865 -0.146493 90.9653 0.846855C87.0956 3.08074 83.873 9.02404 83.873 14.18V18.6935C63.7283 32.4737 50.0275 56.2836 50.0275 79.2755C50.0275 91.684 52.8976 99.176 58.8333 102.823C58.8333 102.824 58.8333 102.835 58.8333 102.835C58.8333 102.835 79.9027 116.154 84.5184 116.957V145.963C75.6561 148.929 68.2434 148.267 60.6674 145.335C59.2163 144.667 57.2815 144.928 55.3482 146.045C50.3525 148.929 46.4844 156.316 46.4844 162.981C46.4844 166.168 47.3038 168.335 48.7412 169.618C48.7412 169.618 69.725 182.507 71.8948 182.979C75.8911 184.428 80.1056 185.173 84.5078 185.208C84.996 186.33 85.7346 187.12 86.6592 187.508L86.6577 187.517C86.6577 187.517 107.396 199.57 107.61 199.667L107.637 199.683L107.639 199.678C108.852 200.221 110.378 200.084 112.022 199.135C115.892 196.901 118.951 191.054 118.951 185.895V173.004C139.423 158.606 153.279 134.918 153.279 111.282C153.281 99.9496 150.729 92.4942 145.215 88.5559Z" fill="#06B889" fill-opacity="0.5"/>
<path d="M112.022 13.0478C115.892 10.8139 118.951 13.1302 118.951 18.2861V23.0133C128.461 19.0262 136.52 18.457 143.933 20.4086C146.513 20.8526 148.77 22.7783 148.77 27.9312C148.77 34.5962 144.737 42.0761 139.743 44.96C138.13 45.8908 136.52 46.1761 134.908 45.8175C129.266 44.5663 123.789 44.5053 118.311 45.9503V87.2085C142.809 81.2301 153.281 88.2919 153.281 111.282C153.281 134.918 139.423 158.606 118.951 173.004V185.895C118.951 191.054 115.892 196.899 112.022 199.133C108.154 201.369 104.932 199.149 104.932 193.99V180.666C92.8452 185.925 81.7261 186.542 71.8964 182.979C69.1575 182.198 67.5431 179.694 67.5431 175.18C67.5431 168.515 71.4127 161.128 76.4069 158.244C78.3417 157.129 80.2766 156.866 81.7261 157.536C89.3021 160.466 96.7148 161.128 105.579 158.163V115.833C82.0481 121.252 71.0862 115.762 71.0862 91.4749C71.0862 68.4845 84.787 44.6731 104.932 30.8945V26.3809C104.932 21.225 108.154 15.2817 112.022 13.0478ZM105.577 90.0452V52.0111C95.2637 59.256 90.1063 69.5373 90.1063 78.9932C90.1063 88.0157 93.1657 91.835 105.577 90.0452ZM118.311 112.561V151.668C128.624 144.212 134.265 134.079 134.265 123.761C134.265 114.311 130.718 110.558 118.311 112.561Z" fill="#06D6A0"/>
</g>
<defs>
<clipPath id="clip0">
<rect width="200" height="200" fill="white"/>
</clipPath>
</defs>
</svg>
